<?xml version="1.0" standalone="no"?>
<!DOCTYPE svg PUBLIC "-//W3C//DTD SVG 20010904//EN"
 "http://www.w3.org/TR/2001/REC-SVG-20010904/DTD/svg10.dtd">
<svg version="1.0" xmlns="http://www.w3.org/2000/svg"
 width="300.000000pt" height="300.000000pt" viewBox="0 0 300.000000 300.000000"
 preserveAspectRatio="xMidYMid meet">
<metadata>
Created by potrace 1.11, written by Peter Selinger 2001-2013
</metadata>
<g transform="translate(0.000000,300.000000) scale(0.100000,-0.100000)"
fill="#000000" stroke="none">
<path d="M590 2765 c-86 -23 -140 -59 -201 -135 -47 -60 -70 -121 -74 -199 -6
-136 46 -242 155 -322 173 -127 448 -59 538 133 29 62 34 84 37 157 10 241
-221 427 -455 366z"/>
<path d="M2235 2764 c-104 -25 -200 -106 -248 -212 -17 -37 -21 -67 -22 -142
0 -88 3 -101 33 -162 38 -78 101 -139 182 -176 45 -21 71 -25 145 -26 82 -1
96 2 155 31 115 57 190 155 209 273 19 121 -16 227 -103 316 -95 95 -217 129
-351 98z"/>
<path d="M1395 2402 c-249 -51 -433 -270 -438 -521 -4 -181 37 -285 159 -408
220 -221 568 -217 787 10 105 109 152 234 148 392 -2 88 -6 112 -32 180 -65
173 -221 307 -402 345 -51 10 -175 12 -222 2z"/>
<path d="M273 2038 c-83 -22 -128 -151 -140 -398 -6 -144 3 -194 47 -244 54
-61 115 -80 275 -84 l141 -4 53 50 c48 45 141 100 199 117 27 8 67 13 104 14
l28 1 -34 63 c-54 99 -77 187 -78 300 -1 62 -5 97 -12 96 -6 0 -38 -6 -71 -13
-124 -27 -246 -5 -405 74 -63 31 -80 36 -107 28z"/>
<path d="M2635 2014 c-109 -56 -210 -86 -295 -87 -80 -1 -154 9 -182 24 -15 8
-17 1 -18 -78 0 -49 -2 -95 -3 -103 -2 -8 -7 -33 -12 -55 -6 -31 -48 -129 -93
-217 -2 -5 11 -8 30 -8 37 0 115 -20 169 -43 40 -18 137 -91 157 -119 11 -16
29 -18 141 -18 144 0 205 13 268 59 65 47 78 85 77 231 -2 256 -51 407 -141
438 -29 10 -40 7 -98 -24z"/>
<path d="M911 1398 c-68 -12 -165 -62 -210 -108 -127 -132 -197 -358 -205
-670 -4 -171 51 -286 171 -357 86 -50 107 -51 833 -51 372 0 697 4 724 9 113
21 206 92 253 193 27 58 28 68 28 206 0 160 -7 228 -35 340 -69 281 -209 428
-421 444 -35 3 -55 -6 -147 -64 -189 -118 -332 -153 -501 -124 -104 18 -179
50 -294 123 -102 65 -125 72 -196 59z"/>
</g>
</svg>
